# xmcd
#
# Track frame offsets: 
#        150
#        16377
#        32710
#        51756
#        68786
#        85788
#        104628
#        120277
#        137573
#        156777
#        174373
#        189054
#        197525
#        220780
#        237556
#        255180
#        268432
#        284778
#        302352
#        317753
#        334059
#        345292
#
# Disc length: 4796 seconds
#
# Revision: 0
# Processed by: cddbd v1.5.2PL0 Copyright (c) Steve Scherf et al.
# Submitted via: ExactAudioCopy v0.99pb4
#
DISCID=3012ba16
DTITLE=Various Artist - prevue promo 1159A-1
DYEAR=2005
DGENRE=pop
TTITLE0=Shania Twain - Don't
TTITLE1=Blackout Effect, The - Close
TTITLE2=Stevie Wonder - So What The Fuss(Edit)
TTITLE3=Celine Dion - In Some Small Way(Radio Edit)
TTITLE4=Tyra - Country Boy(Lyric - "Radio Edit")
TTITLE5=Nelly feat.  Jung Tru and King Jacob - Errtime(Movie "THE LONGES
TTITLE5=T YARD")
TTITLE6=Game feat. 50 Cent - Hate It Or Love It(Lyric - "Edited")
TTITLE7=Will Smith feat. Elephant Man - Switch(Reggae Remix)
TTITLE8=Syleena Johnson feat.  R. Kelly and Fabolous - Hypnotic(Clean Ra
TTITLE8=dio Edit no DJ Clue)
TTITLE9=Shooter Jennings - Busted In Baylor County
TTITLE10=Martha Wainwright - When The Day Is Short
TTITLE11=Sarah Vaughan - Peter Gunn(Unmixed Version)
TTITLE12=Sarah Vaughan - Peter Gunn(Max Sedgley Remix)
TTITLE13=Ringside - Tired Of Being Sorry(Re-Serviced - Radio Edit - So
TTITLE13=ng Has Been Re-Titled From "SPANISHFASTER")
TTITLE14=Jonathan Rice - Kiss Me Goodbye
TTITLE15=Juan Corazon - Aline(Cumbia)
TTITLE16=Fall Out Boy - Sugar, We're Goin Down
TTITLE17=Shadows Fall - Inspiration On Demand
TTITLE18=Life Of Agony - Love To Let You Down
TTITLE19=Ambulance LTD. - Stay Where You Are(Radio - Extended Intro)
TTITLE20=Smoke Or Fire - California's Burning
TTITLE21=Razor Light - Vice
EXTD=
EXTT0=
EXTT1=
EXTT2=
EXTT3=
EXTT4=
EXTT5=
EXTT6=
EXTT7=
EXTT8=
EXTT9=
EXTT10=
EXTT11=
EXTT12=
EXTT13=
EXTT14=
EXTT15=
EXTT16=
EXTT17=
EXTT18=
EXTT19=
EXTT20=
EXTT21=
PLAYORDER=
